<?xml version="1.0" encoding="UTF-8" standalone="no"?>
<svg width="180px" height="180px" viewBox="0 0 180 180" version="1.1" xmlns="http://www.w3.org/2000/svg" xmlns:xlink="http://www.w3.org/1999/xlink" xmlns:sketch="http://www.bohemiancoding.com/sketch/ns">
    <!-- Generator: Sketch 3.2.2 (9983) - http://www.bohemiancoding.com/sketch -->
    <title>Logo - 181</title>
    <desc>Created with Sketch.</desc>
    <defs></defs>
    <g id="Page-1" stroke="none" stroke-width="1" fill="none" fill-rule="evenodd" sketch:type="MSPage">
        <g id="Logo---181" sketch:type="MSArtboardGroup" fill="#FFFFFF">
            <path d="M18.9326172,38.8164062 L66,25.4160156 L66,141.730469 L18.9326172,154.901367 L18.9326172,38.8164062 Z M34.8169873,55.5849365 L35.6830127,55.0849365 L38.1830127,59.4150635 L37.3169873,59.9150635 L34.8169873,55.5849365 Z M39.8169873,64.5849365 L40.6830127,64.0849365 L43.1830127,68.4150635 L42.3169873,68.9150635 L39.8169873,64.5849365 Z M50.5100088,80.9062827 L51.2760532,80.2634951 L54.4899912,84.0937173 L53.7239468,84.7365049 L50.5100088,80.9062827 Z M44.7190671,72.6756431 L45.5577377,72.1310041 L48.2809329,76.3243569 L47.4422623,76.8689959 L44.7190671,72.6756431 Z M57.2221424,88.3548517 L57.8378039,87.5668409 L61.7778576,90.6451483 L61.1621961,91.4331591 L57.2221424,88.3548517 Z" id="Rectangle-12" sketch:type="MSShapeGroup"></path>
            <path d="M145.108588,120.390448 L140.727237,114.782575 L137.575194,117.245221 L142.390776,123.408884 L137.15697,129.221615 L140.129549,131.898137 L144.891412,126.609552 L149.272763,132.217425 L152.424806,129.754779 L147.609224,123.591116 L152.84303,117.778385 L149.870451,115.101863 L145.108588,120.390448 Z M114.932617,38.8164062 L162,25.4160156 L162,141.730469 L114.932617,154.901367 L114.932617,38.8164062 Z M117.183565,100.435045 L117.77135,99.6260284 L121.816435,102.564955 L121.22865,103.373972 L117.183565,100.435045 Z M125.285197,106.237207 L125.941256,105.482498 L129.714803,108.762793 L129.058744,109.517502 L125.285197,106.237207 Z M133.285197,113.237207 L133.941256,112.482498 L137.714803,115.762793 L137.058744,116.517502 L133.285197,113.237207 Z" id="Rectangle-14" sketch:type="MSShapeGroup"></path>
            <path d="M67,91.3331502 L67,25.4160156 L114.067383,38.8164062 L114.067383,154.901367 L67,141.730469 L67,92.3594543 L71.0484007,91.4248074 L70.8234496,90.4504373 L67,91.3331502 L67,91.3331502 Z M74.8378039,88.4331591 L74.2221424,87.6451483 L78.1621961,84.5668409 L78.7778576,85.3548517 L74.8378039,88.4331591 Z M83.0295941,83.1301547 L82.9772582,82.1315251 L87.9704059,81.8698453 L88.0227418,82.8684749 L83.0295941,83.1301547 Z M93.0849365,83.6830127 L93.5849365,82.8169873 L97.9150635,85.3169873 L97.4150635,86.1830127 L93.0849365,83.6830127 Z M101.084936,88.6830127 L101.584936,87.8169873 L105.915064,90.3169873 L105.415064,91.1830127 L101.084936,88.6830127 Z M109.183565,94.4350454 L109.77135,93.6260284 L113.816435,96.5649546 L113.22865,97.3739716 L109.183565,94.4350454 Z" id="Rectangle-13" sketch:type="MSShapeGroup"></path>
        </g>
    </g>
</svg>