<?xml version="1.0" encoding="UTF-8" standalone="no"?>
<svg width="180px" height="180px" viewBox="0 0 180 180" version="1.1" xmlns="http://www.w3.org/2000/svg" xmlns:xlink="http://www.w3.org/1999/xlink" xmlns:sketch="http://www.bohemiancoding.com/sketch/ns">
    <!-- Generator: Sketch 3.2.2 (9983) - http://www.bohemiancoding.com/sketch -->
    <title>Share Icon</title>
    <desc>Created with Sketch.</desc>
    <defs></defs>
    <g id="Page-1" stroke="none" stroke-width="1" fill="none" fill-rule="evenodd" sketch:type="MSPage">
        <g id="Share-Icon" sketch:type="MSArtboardGroup" fill="#FFFFFF">
            <path d="M43.4084094,121.669373 C41.6067221,120.081916 39.9382447,118.401617 38.4164996,116.638947 C31.8365611,109.017258 28,99.8554977 28,90 C28,63.490332 55.7583455,42 90,42 C124.241654,42 152,63.490332 152,90 C152,116.509668 124.241654,138 90,138 C79.0045841,138 68.6776822,135.784065 59.7237297,131.897565 L37.3223673,142.8416 L43.4084094,121.669373 L43.4084094,121.669373 Z M73.656,100.608 C72.5519945,100.608 71.6160038,100.224004 70.848,99.456 C70.0799962,98.6879962 69.696,97.7520055 69.696,96.648 L69.696,67.56 C69.696,66.4559945 70.091996,65.5200038 70.884,64.752 C71.676004,63.9839962 72.5999947,63.6 73.656,63.6 C74.7120053,63.6 75.6239962,63.9839962 76.392,64.752 C77.1600038,65.5200038 77.544,66.4559945 77.544,67.56 L77.544,96.648 C77.544,97.7520055 77.1720037,98.6879962 76.428,99.456 C75.6839963,100.224004 74.7600055,100.608 73.656,100.608 Z M77.544,110.04 C77.544,111.144006 77.1720037,112.079996 76.428,112.848 C75.6839963,113.616004 74.7600055,114 73.656,114 C72.5519945,114 71.6160038,113.616004 70.848,112.848 C70.0799962,112.079996 69.696,111.144006 69.696,110.04 L69.696,108.6 C69.696,107.495994 70.091996,106.560004 70.884,105.792 C71.676004,105.023996 72.5999947,104.64 73.656,104.64 C74.7120053,104.64 75.6239962,105.023996 76.392,105.792 C77.1600038,106.560004 77.544,107.495994 77.544,108.6 L77.544,110.04 Z M91.8,100.608 C90.6959945,100.608 89.7600038,100.224004 88.992,99.456 C88.2239962,98.6879962 87.84,97.7520055 87.84,96.648 L87.84,67.56 C87.84,66.4559945 88.235996,65.5200038 89.028,64.752 C89.820004,63.9839962 90.7439947,63.6 91.8,63.6 C92.8560053,63.6 93.7679962,63.9839962 94.536,64.752 C95.3040038,65.5200038 95.688,66.4559945 95.688,67.56 L95.688,96.648 C95.688,97.7520055 95.3160037,98.6879962 94.572,99.456 C93.8279963,100.224004 92.9040055,100.608 91.8,100.608 Z M95.688,110.04 C95.688,111.144006 95.3160037,112.079996 94.572,112.848 C93.8279963,113.616004 92.9040055,114 91.8,114 C90.6959945,114 89.7600038,113.616004 88.992,112.848 C88.2239962,112.079996 87.84,111.144006 87.84,110.04 L87.84,108.6 C87.84,107.495994 88.235996,106.560004 89.028,105.792 C89.820004,105.023996 90.7439947,104.64 91.8,104.64 C92.8560053,104.64 93.7679962,105.023996 94.536,105.792 C95.3040038,106.560004 95.688,107.495994 95.688,108.6 L95.688,110.04 Z M109.944,100.608 C108.839994,100.608 107.904004,100.224004 107.136,99.456 C106.367996,98.6879962 105.984,97.7520055 105.984,96.648 L105.984,67.56 C105.984,66.4559945 106.379996,65.5200038 107.172,64.752 C107.964004,63.9839962 108.887995,63.6 109.944,63.6 C111.000005,63.6 111.911996,63.9839962 112.68,64.752 C113.448004,65.5200038 113.832,66.4559945 113.832,67.56 L113.832,96.648 C113.832,97.7520055 113.460004,98.6879962 112.716,99.456 C111.971996,100.224004 111.048006,100.608 109.944,100.608 Z M113.832,110.04 C113.832,111.144006 113.460004,112.079996 112.716,112.848 C111.971996,113.616004 111.048006,114 109.944,114 C108.839994,114 107.904004,113.616004 107.136,112.848 C106.367996,112.079996 105.984,111.144006 105.984,110.04 L105.984,108.6 C105.984,107.495994 106.379996,106.560004 107.172,105.792 C107.964004,105.023996 108.887995,104.64 109.944,104.64 C111.000005,104.64 111.911996,105.023996 112.68,105.792 C113.448004,106.560004 113.832,107.495994 113.832,108.6 L113.832,110.04 Z" id="Oval-5" sketch:type="MSShapeGroup"></path>
        </g>
    </g>
</svg>