<?xml version="1.0" encoding="UTF-8" standalone="no"?>
<svg width="400px" height="378px" viewBox="0 0 400 378" version="1.1" xmlns="http://www.w3.org/2000/svg" xmlns:xlink="http://www.w3.org/1999/xlink" xmlns:sketch="http://www.bohemiancoding.com/sketch/ns">
    <!-- Generator: Sketch 3.2.2 (9983) - http://www.bohemiancoding.com/sketch -->
    <title>path12604</title>
    <desc>Created with Sketch.</desc>
    <defs></defs>
    <g id="Page-1" stroke="none" stroke-width="1" fill="none" fill-rule="evenodd" sketch:type="MSPage">
        <g id="1425892936_snapchat" sketch:type="MSLayerGroup" transform="translate(-56.000000, -67.000000)" fill="#FFFFFF">
            <g id="g4127" sketch:type="MSShapeGroup">
                <path d="M254.23192,67.745656 C230.07662,67.911016 205.09862,74.321816 185.51312,89.808156 C170.84612,101.38581 159.31396,116.72932 152.04441,133.87066 C152.03351,133.91216 152.02311,133.95386 152.01321,133.99566 C145.08963,151.65772 145.7308,170.45474 146.66946,187.87066 C146.66995,187.88126 146.66897,187.89136 146.66946,187.90186 C147.23992,200.14297 148.58866,211.99368 147.45071,223.24561 C147.35881,223.68363 147.35471,223.79337 147.29446,224.05811 C141.8493,225.04512 135.92246,224.68713 130.04446,223.55811 C130.01326,223.55782 129.98196,223.55782 129.95076,223.55811 C125.92437,222.86505 121.62279,221.20582 116.76326,219.83936 C116.68046,219.81636 116.59711,219.79556 116.51326,219.77686 C111.79693,218.69862 107.16084,220.07187 103.60701,222.71436 C103.56131,222.74396 103.49716,222.77786 103.45076,222.80806 C103.37976,222.86206 103.30211,222.9093 103.23201,222.96431 C100.33936,224.87991 96.377032,228.09628 96.169512,233.68306 C96.160512,234.04961 96.192012,234.41713 96.263212,234.77681 C96.887852,238.0598 98.907282,240.46024 100.70071,242.02681 C102.49413,243.59338 104.18849,244.628 105.23196,245.43306 C105.31336,245.49816 105.3967,245.56068 105.48196,245.62056 C114.27891,251.5557 124.01477,254.16355 132.48196,257.46431 C132.49096,257.46731 132.50446,257.46131 132.51316,257.46431 C138.37521,260.06162 143.46908,264.1004 144.63816,269.18306 C146.09793,275.61019 143.39136,282.98864 139.85691,290.15181 C139.85291,290.16081 139.86091,290.17441 139.85691,290.18301 C130.32357,309.16866 116.16602,325.6791 98.763162,337.77676 C89.639422,344.07187 79.346637,348.77126 68.606857,351.68316 C68.458708,351.72846 68.312665,351.78056 68.169357,351.83941 C65.965617,352.66927 60.740117,353.21188 57.450607,358.21441 C57.216814,358.56378 57.027325,358.94276 56.888107,359.33941 C55.778877,362.55621 57.044307,366.00999 58.606857,367.90191 C60.098957,369.70853 61.763527,370.75977 63.200607,371.52691 C63.274107,371.56991 63.345707,371.60931 63.419357,371.65191 C72.462117,376.87799 82.337952,379.14348 91.356862,381.46441 C91.398362,381.47531 91.440062,381.48571 91.481862,381.49561 C97.979962,382.97538 103.9706,383.7659 108.85686,385.87061 C109.09609,386.27295 109.58538,387.92893 110.73186,390.68311 C112.33337,395.68279 113.06138,401.58681 114.91936,407.77686 C115.4274,409.49028 116.92161,410.87242 118.66936,411.24561 C122.77336,412.11754 125.03055,410.70944 125.38811,410.68311 C125.55569,410.67071 125.72263,410.64981 125.88811,410.62061 C140.9883,407.97381 156.05646,405.62678 169.88807,409.12061 C169.89807,409.12361 169.90907,409.11761 169.91907,409.12061 C184.43507,412.94424 197.04997,423.03507 211.26287,431.71436 C211.28787,431.72976 211.29987,431.76146 211.32487,431.77686 L211.32487,431.74566 C220.75907,437.73212 231.66417,443.59416 244.26237,444.02691 L244.26237,444.05811 C244.30437,444.05911 244.34537,444.05711 244.38737,444.05811 C253.90287,444.59707 263.24237,443.99241 272.35607,443.37061 C272.40817,443.37142 272.46027,443.37142 272.51237,443.37061 C280.31617,442.59759 287.89307,440.00059 294.51237,435.74561 C294.60637,435.69211 294.69997,435.64303 294.79357,435.58936 C309.73877,427.02592 323.01937,416.70702 337.57487,410.24561 C337.59587,410.23761 337.61687,410.22191 337.63687,410.21441 C342.35767,408.50284 348.25577,408.59935 354.82437,408.15191 C354.88637,408.14991 354.94937,408.15391 355.01187,408.15191 C367.06457,407.77981 379.14017,408.42605 391.10557,410.02691 C391.52005,410.07911 391.94109,410.07911 392.35557,410.02691 C393.92697,409.84051 395.64447,408.78536 396.48057,407.71441 C397.31667,406.64346 397.55757,405.77123 397.73057,405.15191 C398.07677,403.91327 398.39757,403.32089 397.82457,404.33941 C398.00627,404.02335 398.15327,403.68736 398.26207,403.33941 C400.45917,396.05939 401.65457,389.47144 405.19957,385.37066 C406.79247,383.8135 409.53357,383.0318 412.63707,383.08941 C412.86659,383.09441 413.09648,383.08441 413.32457,383.05821 C423.72697,381.82688 433.12977,378.07125 442.04337,374.87071 C442.14893,374.83251 442.25321,374.79081 442.35597,374.74566 C445.66727,373.30225 450.60127,371.64603 453.98097,366.90191 C453.99897,366.87651 454.02497,366.86501 454.04297,366.83941 L454.01197,366.80821 C456.85477,362.83571 455.53497,357.38352 451.51197,354.90196 L451.57397,354.83946 C451.44647,354.75276 451.32657,354.70351 451.19897,354.62071 C451.16497,354.60211 451.13997,354.57631 451.10497,354.55821 L451.10497,354.58941 C446.27907,351.48935 441.44377,351.05849 438.38627,349.93316 C438.32417,349.91106 438.26167,349.89026 438.19877,349.87066 C417.51157,343.23498 399.62097,328.94955 386.26127,311.55816 C378.84407,301.86687 372.57137,291.33614 368.41747,280.08941 C368.40347,280.04841 368.39947,280.00541 368.38647,279.96441 C366.76027,275.08088 366.67877,269.75539 369.07397,266.52691 C369.10567,266.49611 369.13707,266.46491 369.16797,266.43321 C372.90457,261.06482 379.76147,257.61443 387.07427,254.90196 C387.10427,254.89156 387.13827,254.88116 387.16827,254.87076 C395.25017,252.05919 404.09457,248.7839 411.38697,242.30826 C411.41877,242.27746 411.45007,242.24626 411.48097,242.21456 C412.60927,241.14761 413.96617,239.75854 414.98097,237.68331 C415.99587,235.60808 416.47707,232.37299 415.13727,229.55831 C415.1373,229.54791 415.1373,229.53751 415.13727,229.52711 C413.03287,225.19162 409.36327,222.96091 406.63727,221.33961 C406.62697,221.33958 406.61657,221.33958 406.60627,221.33961 C402.03897,218.67369 396.72467,218.50074 392.10627,219.99586 C392.09627,219.99886 392.08527,219.99286 392.07527,219.99586 C392.04427,220.00596 392.01227,220.01686 391.98127,220.02706 C386.99207,221.54541 382.91887,223.36097 379.13747,223.83956 C379.05357,223.85826 378.97025,223.87906 378.88747,223.90206 C373.51377,224.85983 368.31017,225.08985 364.26247,223.58956 C364.22447,222.98307 364.20547,221.79943 364.04377,220.33956 L364.07477,220.33956 C363.77597,211.42426 364.53127,202.23352 364.66847,192.71456 C364.66877,192.69336 364.66817,192.67326 364.66847,192.65206 C365.07967,178.18888 365.66327,163.29911 363.54347,148.30831 C363.53447,148.23521 363.52437,148.16224 363.51247,148.08956 C358.89707,122.80203 342.82547,101.0222 322.44997,86.527056 C307.63787,76.017186 290.05277,70.151246 272.19997,68.495806 C272.18997,68.494806 272.17897,68.496806 272.16897,68.495806 C266.17777,67.890936 260.19487,67.676356 254.23147,67.745806 L254.23192,67.745656 Z" id="path12604"></path>
            </g>
        </g>
    </g>
</svg>